# xmcd
#
# Track frame offsets:
#	150
#	15672
#	31100
#	46027
#	60105
#	75040
#	87677
#	103462
#	115645
#	132297
#
# Disc length: 1992 seconds
#
# Revision: 0
# Processed by: cddbd v1.4PL0 Copyright (c) Steve Scherf et al.
# Submitted via: audiograbber 1.81.02
#
DISCID=6a07c60a
DTITLE=Ricky Van Shelton - Back Roads
DYEAR=1991
DGENRE=Country
TTITLE0=I Am A Simple Man
TTITLE1=Rockin' Years
TTITLE2=Oh Heart Of Mine
TTITLE3=Some Things Are Better Left Alone
TTITLE4=After The Lights Go Out
TTITLE5=Call Me Up
TTITLE6=If Your Ever In My Arms
TTITLE7=Who'll Turn Out The Lights
TTITLE8=Backroads
TTITLE9=Keep It Between The Lines
EXTD=Sony Music
EXTT0=
EXTT1=
EXTT2=
EXTT3=
EXTT4=
EXTT5=
EXTT6=
EXTT7=
EXTT8=
EXTT9=
PLAYORDER=
